<?xml version="1.0" encoding="UTF-8"?>
<svg id="Capa_2" data-name="Capa 2" xmlns="http://www.w3.org/2000/svg" viewBox="0 0 18.61 17.82">
  <defs>
    <style>
      .cls-1 {
        fill: #aebac1;
      }
    </style>
  </defs>
  <g id="Capa_1-2" data-name="Capa 1">
    <g>
      <polygon class="cls-1" points="12.81 10.48 10.61 10.48 10.61 7.07 7.75 7.07 7.75 10.48 5.79 10.48 9.3 13.84 12.81 10.48"/>
      <path class="cls-1" d="m18.6,3.22l-1.67-2.22c-.47-.63-1.35-.99-2.28-1L3.95.04C3.03,0,2.14.42,1.66,1.04L.01,3.22h-.01v12.6c0,1.1.89,1.99,1.98,1.99h14.65c1.09,0,1.98-.89,1.98-1.99V3.22h-.01ZM3.22,2.08c.1-.13.37-.26.72-.26h.01l10.71-.04c.36.01.62.12.71.24l.9,1.2H2.35l.87-1.15Zm13.62,13.75c0,.11-.09.21-.21.21H1.98c-.11,0-.21-.1-.21-.21V5.01h15.06v10.82Z"/>
    </g>
  </g>
</svg>