<?xml version="1.0" encoding="UTF-8"?>
<svg id="Capa_2" data-name="Capa 2" xmlns="http://www.w3.org/2000/svg" viewBox="0 0 18.19 18.43">
  <defs>
    <style>
      .cls-1 {
        fill: #aebac1;
      }
    </style>
  </defs>
  <g id="Capa_1-2" data-name="Capa 1">
    <path class="cls-1" d="m9.1,2c3.91,0,7.1,3.18,7.1,7.1s-3.18,7.1-7.1,7.1c-.85,0-1.67-.15-2.46-.44-.32-.12-.68-.18-1.12-.18-.52,0-1.21.09-1.92.21.09-1.08,0-2.14-.46-2.83-.75-1.15-1.15-2.49-1.15-3.87,0-3.91,3.18-7.1,7.1-7.1m0-2C4.07,0,0,4.07,0,9.1c0,1.83.54,3.54,1.47,4.96.58.89-.41,4.27-.51,4.37.15-.04,3.26-.85,4.56-.85.18,0,.33.02.42.05.98.36,2.04.56,3.15.56,5.02,0,9.1-4.07,9.1-9.1S14.12,0,9.1,0h0ZM.96,18.43s0,0,0,0c0,0,0,0,0,0,0,0,0,0,0,0h0Z"/>
    <circle class="cls-1" cx="9.1" cy="9.22" r="1.59"/>
    <g>
      <path class="cls-1" d="m13.31,5.55c-.32-.46-.97-.52-1.37-.13h0c-.32.32-.33.81-.08,1.17.77,1.09,1.03,2.49.68,3.8-.14.52-.37,1.01-.68,1.44-.26.37-.24.86.08,1.17.39.39,1.05.33,1.37-.13.43-.61.76-1.3.95-2.03.49-1.83.12-3.78-.95-5.3Z"/>
      <path class="cls-1" d="m6.25,5.42h0c-.4-.4-1.05-.33-1.37.13-1.08,1.52-1.44,3.47-.95,5.3.2.73.52,1.42.95,2.03.32.46.97.52,1.37.13.32-.32.33-.81.08-1.17-.31-.44-.54-.93-.68-1.44-.35-1.31-.09-2.71.68-3.8.26-.36.24-.85-.08-1.17Z"/>
    </g>
  </g>
</svg>