<?xml version="1.0" encoding="UTF-8"?>
<svg id="Capa_2" data-name="Capa 2" xmlns="http://www.w3.org/2000/svg" viewBox="0 0 19.23 13.25">
  <defs>
    <style>
      .cls-1 {
        fill: #aebac1;
      }
    </style>
  </defs>
  <g id="Capa_1-2" data-name="Capa 1">
    <path class="cls-1" d="m18.66.59c-.56-.58-1.24-.59-1.37-.59H0l3.59,3.59v7.63c0,1.12.87,2.02,1.94,2.02h11.75c1.07,0,1.94-.9,1.94-2.02V2.02c0-.56-.22-1.06-.57-1.43Zm-6.54,9.17h-3.83c-.74,0-1.35-.46-1.35-1.03s.61-1.03,1.35-1.03h3.83c.74,0,1.35.46,1.35,1.03s-.61,1.03-1.35,1.03Zm2.15-4.11h-5.98c-.74,0-1.35-.45-1.35-1.01s.61-1.01,1.35-1.01h5.98c.74,0,1.35.45,1.35,1.01s-.61,1.01-1.35,1.01Z"/>
  </g>
</svg>