<?xml version="1.0" encoding="utf-8"?>
<!-- Generator: Adobe Illustrator 27.1.0, SVG Export Plug-In . SVG Version: 6.00 Build 0)  -->
<svg version="1.1" id="Capa_2_00000031206136808544011240000006437530858765141415_"
	 xmlns="http://www.w3.org/2000/svg" xmlns:xlink="http://www.w3.org/1999/xlink" x="0px" y="0px" viewBox="0 0 19.2 12"
	 style="enable-background:new 0 0 19.2 12;" xml:space="preserve">
<style type="text/css">
	.st0{fill:#AEBAC1;stroke:#AEBAC1;stroke-width:0.25;stroke-miterlimit:10;}
	.st1{fill:#AEBAC1;}
</style>
<g id="Capa_1-2">
	<g>
		<g>
			<path class="st0" d="M11.9,7.9c0.6,0,1.2,0.6,1.2,1.3v1.7H5.9V9.1c0-0.7,0.5-1.3,1.2-1.3H11.9 M11.9,6.8H7c-1.2,0-2.2,1-2.2,2.3
				v2.8h9.3V9.1C14.1,7.9,13.1,6.8,11.9,6.8C11.9,6.8,11.9,6.8,11.9,6.8z"/>
			<path class="st1" d="M9.5,1c1.2,0,2.1,0.9,2.1,2.1s-0.9,2.1-2.1,2.1S7.4,4.3,7.4,3.1S8.3,1,9.5,1 M9.5,0C7.7,0,6.3,1.4,6.3,3.1
				s1.4,3.1,3.1,3.1s3.1-1.4,3.1-3.1S11.2,0,9.5,0C9.5,0,9.5,0,9.5,0z"/>
		</g>
		<g>
			<path class="st1" d="M4.3,7.6H1.9C0.9,7.6,0,8.5,0,9.6V12h3.2V9.6C3.2,8.5,3.2,7.6,4.3,7.6z"/>
			<circle class="st1" cx="3.5" cy="4.5" r="2"/>
		</g>
		<g>
			<path class="st1" d="M16,9.6l0,2.4h3.2V9.6c0-1.1-0.9-2-1.9-2H15C16,7.6,16,8.5,16,9.6z"/>
			<circle class="st1" cx="15.7" cy="4.5" r="2"/>
		</g>
	</g>
</g>
</svg>
