<?xml version="1.0" encoding="UTF-8"?>
<svg id="Capa_2" data-name="Capa 2" xmlns="http://www.w3.org/2000/svg" viewBox="0 0 19.23 18.36">
  <defs>
    <style>
      .cls-1 {
        fill: #aebac1;
      }
    </style>
  </defs>
  <g id="Capa_1-2" data-name="Capa 1">
    <path class="cls-1" d="m9.61,3.59l1.27,2.57c.4.81,1.17,1.37,2.06,1.5l2.83.41-2.05,2c-.65.63-.94,1.54-.79,2.42l.48,2.82-2.54-1.33c-.39-.21-.83-.31-1.27-.31s-.88.11-1.27.31l-2.54,1.33.48-2.82c.15-.89-.14-1.8-.79-2.42l-2.05-2,2.83-.41c.89-.13,1.66-.69,2.06-1.5l1.27-2.57m0-3.59c-.26,0-.53.14-.66.41l-2.4,4.86c-.11.22-.32.37-.56.4l-5.36.78c-.61.09-.85.83-.41,1.26l3.88,3.78c.17.17.25.41.21.65l-.92,5.34c-.08.48.3.87.73.87.11,0,.23-.03.34-.09l4.8-2.52c.11-.06.23-.08.34-.08s.24.03.34.08l4.8,2.52c.11.06.23.09.34.09.43,0,.81-.39.73-.87l-.92-5.34c-.04-.24.04-.48.21-.65l3.88-3.78c.44-.43.2-1.17-.41-1.26l-5.36-.78c-.24-.04-.45-.19-.56-.4L10.28.41c-.14-.27-.4-.41-.66-.41h0Z"/>
  </g>
</svg>