<?xml version="1.0" encoding="utf-8"?>
<!-- Generator: Adobe Illustrator 27.1.0, SVG Export Plug-In . SVG Version: 6.00 Build 0)  -->
<svg version="1.1" id="Capa_2_00000173842938483935342520000002756227543997670531_"
	 xmlns="http://www.w3.org/2000/svg" xmlns:xlink="http://www.w3.org/1999/xlink" x="0px" y="0px" viewBox="0 0 18.4 18.2"
	 style="enable-background:new 0 0 18.4 18.2;" xml:space="preserve">
<style type="text/css">
	.st0{fill:#AEBAC1;}
</style>
<g id="Capa_1-2">
	<g>
		<path class="st0" d="M14.8,9.1c0-3.1-2.5-5.6-5.6-5.6S3.6,6,3.6,9.1s2.5,5.6,5.6,5.6S14.8,12.2,14.8,9.1z M9.2,12.9
			c-2.1,0-3.8-1.7-3.8-3.8s1.7-3.8,3.8-3.8S13,7,13,9.1S11.3,12.9,9.2,12.9z"/>
		<g>
			<path class="st0" d="M1.4,6.4h0.1c0.3,0,0.5-0.2,0.6-0.4c1.2-2.7,3.9-4.5,7-4.5s5.8,1.9,7,4.5c0.1,0.2,0.4,0.4,0.6,0.4h0.1
				c0.5,0,0.8-0.5,0.6-1C16.1,2.2,12.9,0,9.2,0S2.2,2.2,0.8,5.4C0.6,5.9,0.9,6.4,1.4,6.4z"/>
			<path class="st0" d="M18.4,9c0-0.4-0.3-0.7-0.8-0.7s-0.8,0.4-0.7,0.8c0,0,0,0.1,0,0.1c0,3.7-2.7,6.8-6.2,7.5
				c-0.3,0.1-0.6,0.4-0.6,0.7l0,0c0,0.5,0.4,0.8,0.9,0.7c4.2-0.8,7.4-4.6,7.4-9C18.4,9.1,18.4,9.1,18.4,9L18.4,9z"/>
			<path class="st0" d="M7.7,16.7C4.1,16,1.5,12.9,1.5,9.2c0,0,0-0.1,0-0.1c0-0.4-0.3-0.8-0.7-0.8S0,8.6,0,9c0,0.1,0,0.1,0,0.2
				c0,4.4,3.2,8.2,7.4,9c0.5,0.1,0.9-0.3,0.9-0.7l0,0C8.3,17.1,8,16.8,7.7,16.7L7.7,16.7z"/>
		</g>
	</g>
</g>
</svg>
