<?xml version="1.0" encoding="UTF-8"?>
<svg id="Capa_2" data-name="Capa 2" xmlns="http://www.w3.org/2000/svg" viewBox="0 0 19.23 13.25">
  <defs>
    <style>
      .cls-1 {
        fill: #aebac1;
      }
    </style>
  </defs>
  <g id="Capa_1-2" data-name="Capa 1">
    <g>
      <path class="cls-1" d="m18.66.59c-.56-.58-1.24-.59-1.37-.59H0l3.59,3.59v7.64c0,1.12.87,2.02,1.94,2.02h11.75c1.07,0,1.94-.9,1.94-2.02V2.02c0-.56-.22-1.06-.57-1.43Zm-1.12,10.64c0,.2-.13.34-.26.34H5.53c-.12,0-.26-.14-.26-.34V2.9l-.49-.49-.72-.72h13.22s.1.01.16.07c.04.04.1.12.1.26v9.21Z"/>
      <path class="cls-1" d="m14.02,5.96h-1.95v-1.95c0-.37-.3-.66-.66-.66s-.66.3-.66.66v1.95h-1.95c-.37,0-.66.3-.66.66s.3.66.66.66h1.95v1.95c0,.37.3.66.66.66s.66-.3.66-.66v-1.95h1.95c.37,0,.66-.3.66-.66s-.3-.66-.66-.66Z"/>
    </g>
  </g>
</svg>